<svg width='200' height='200' fill="#000000" xmlns:sketch="http://www.bohemiancoding.com/sketch/ns" xmlns="http://www.w3.org/2000/svg" xmlns:xlink="http://www.w3.org/1999/xlink" version="1.1" x="0px" y="0px" viewBox="0 0 90 90" enable-background="new 0 0 90 90" xml:space="preserve"><title>Artboard 2</title><desc>Created with Sketch.</desc><path d="M78.277,35.68L47.523,4.134c-1.492-1.531-3.891-1.509-5.358,0.047c-1.467,1.557-1.447,4.06,0.045,5.591l24.152,24.773H12.79  c-2.093,0-3.79,1.77-3.79,3.954s1.697,3.954,3.79,3.954h62.832C79.013,42.453,80.696,38.161,78.277,35.68z"/><path d="M75.629,48.465H12.797c-3.391,0-5.075,4.292-2.657,6.773l30.754,31.545c1.492,1.531,3.892,1.51,5.359-0.047  c1.467-1.557,1.446-4.061-0.046-5.591L22.056,56.372h53.573c2.093,0,3.789-1.771,3.789-3.954  C79.418,50.235,77.722,48.465,75.629,48.465z"/></svg>